<svg width="1080" height="490" viewBox="0 0 1080 490" fill="none" xmlns="http://www.w3.org/2000/svg">
<path fill-rule="evenodd" clip-rule="evenodd" d="M1085 0H0V490H306.299C308.608 457.34 335.874 431.56 369.17 431.56C402.466 431.56 429.732 457.34 432.041 490H760.973C764.526 392.573 844.745 314.679 943.185 314.679C1000.46 314.679 1051.57 341.051 1085 382.299V0ZM1026.48 490C1022.88 447.421 987.121 413.987 943.545 413.987C899.969 413.987 864.214 447.421 860.605 490H1026.48ZM397.699 490C395.486 476.328 383.611 465.888 369.295 465.888C354.978 465.888 343.104 476.328 340.891 490H397.699ZM904.917 112.385C904.917 92.5235 888.792 76.4221 868.9 76.4221C849.009 76.4221 832.884 92.5235 832.884 112.385C832.884 132.247 849.009 148.349 868.9 148.349C888.792 148.349 904.917 132.247 904.917 112.385ZM885.414 112.314C885.414 103.247 878.052 95.8963 868.972 95.8963C859.891 95.8963 852.529 103.247 852.529 112.314C852.529 121.382 859.891 128.732 868.972 128.732C878.052 128.732 885.414 121.382 885.414 112.314ZM157.573 454.037C212.274 454.037 256.618 409.758 256.618 355.138C256.618 300.517 212.274 256.239 157.573 256.239C102.871 256.239 58.527 300.517 58.527 355.138C58.527 409.758 102.871 454.037 157.573 454.037ZM157.768 400.483C182.741 400.483 202.985 380.269 202.985 355.333C202.985 330.398 182.741 310.184 157.768 310.184C132.796 310.184 112.552 330.398 112.552 355.333C112.552 380.269 132.796 400.483 157.768 400.483ZM229.606 80.9175C242.038 80.9175 252.116 90.9809 252.116 103.395C252.116 115.808 242.038 125.872 229.606 125.872C217.174 125.872 207.095 115.808 207.095 103.395C207.095 90.9809 217.174 80.9175 229.606 80.9175ZM229.65 93.0889C235.326 93.0889 239.927 97.683 239.927 103.35C239.927 109.017 235.326 113.611 229.65 113.611C223.975 113.611 219.374 109.017 219.374 103.35C219.374 97.683 223.975 93.0889 229.65 93.0889Z" fill="#2185C6"/>
</svg>
