<svg width="1022" height="603" viewBox="0 0 1022 603" fill="none" xmlns="http://www.w3.org/2000/svg">
<path fill-rule="evenodd" clip-rule="evenodd" d="M99.5725 378.037C154.274 378.037 198.618 333.758 198.618 279.138C198.618 224.517 154.274 180.239 99.5725 180.239C44.8711 180.239 0.526855 224.517 0.526855 279.138C0.526855 333.758 44.8711 378.037 99.5725 378.037ZM99.7682 324.483C124.741 324.483 144.985 304.269 144.985 279.333C144.985 254.398 124.741 234.184 99.7682 234.184C74.7959 234.184 54.5518 254.398 54.5518 279.333C54.5518 304.269 74.7959 324.483 99.7682 324.483Z" fill="white"/>
<path fill-rule="evenodd" clip-rule="evenodd" d="M311.17 481.431C345.98 481.431 374.199 453.254 374.199 418.496C374.199 383.737 345.98 355.56 311.17 355.56C276.36 355.56 248.141 383.737 248.141 418.496C248.141 453.254 276.36 481.431 311.17 481.431ZM311.295 447.351C327.186 447.351 340.069 434.488 340.069 418.62C340.069 402.752 327.186 389.888 311.295 389.888C295.403 389.888 282.52 402.752 282.52 418.62C282.52 434.488 295.403 447.351 311.295 447.351Z" fill="white"/>
<path fill-rule="evenodd" clip-rule="evenodd" d="M810.9 0.422119C830.792 0.422119 846.917 16.5235 846.917 36.3854C846.917 56.2474 830.792 72.3487 810.9 72.3487C791.009 72.3487 774.884 56.2474 774.884 36.3854C774.884 16.5235 791.009 0.422119 810.9 0.422119ZM810.971 19.8963C820.052 19.8963 827.414 27.2469 827.414 36.3144C827.414 45.3818 820.052 52.7324 810.971 52.7324C801.891 52.7324 794.529 45.3818 794.529 36.3144C794.529 27.2469 801.891 19.8963 810.971 19.8963Z" fill="white"/>
<path fill-rule="evenodd" clip-rule="evenodd" d="M171.606 4.91753C184.038 4.91753 194.116 14.9809 194.116 27.3946C194.116 39.8083 184.038 49.8717 171.606 49.8717C159.174 49.8717 149.095 39.8083 149.095 27.3946C149.095 14.9809 159.174 4.91753 171.606 4.91753ZM171.65 17.0889C177.326 17.0889 181.927 21.683 181.927 27.3502C181.927 33.0173 177.326 37.6114 171.65 37.6114C165.975 37.6114 161.374 33.0173 161.374 27.3502C161.374 21.683 165.975 17.0889 171.65 17.0889Z" fill="white"/>
<path fill-rule="evenodd" clip-rule="evenodd" d="M885.185 602.807C985.885 602.807 1067.52 521.294 1067.52 420.743C1067.52 320.192 985.885 238.679 885.185 238.679C784.484 238.679 702.851 320.192 702.851 420.743C702.851 521.294 784.484 602.807 885.185 602.807ZM885.545 504.219C931.517 504.219 968.784 467.007 968.784 421.103C968.784 375.199 931.517 337.987 885.545 337.987C839.573 337.987 802.305 375.199 802.305 421.103C802.305 467.007 839.573 504.219 885.545 504.219Z" fill="white"/>
</svg>
